<svg xmlns="http://www.w3.org/2000/svg" xmlns:xlink="http://www.w3.org/1999/xlink" width="88.729" height="89.776" viewBox="0 0 88.729 89.776"><defs><linearGradient id="a" x1="0.5" x2="0.5" y2="1" gradientUnits="objectBoundingBox"><stop offset="0" stop-color="#fff"/><stop offset="1" stop-color="#d2d2d2"/></linearGradient></defs><path d="M-307.228,96.758c-.372-1.255-.228-1.593.919-2.279A28.26,28.26,0,0,1-295.94,90.8c1.258-.193,1.661.041,2.167,1.211.131.3.107.873.684.646.482-.189,1.168-.035,1.277-.906A8.385,8.385,0,0,1-286.891,85c1.769-.882,3.539-1.765,5.335-2.59a.9.9,0,0,0,.62-1.055,6.906,6.906,0,0,1,0-1.574c.112-.813-.15-1.018-.966-.923a22.523,22.523,0,0,1-23.905-16.2,22.527,22.527,0,0,1,16.139-28.034,22.591,22.591,0,0,1,26.411,13.287c.463,1.142.463,1.142,1.591.484a13.4,13.4,0,0,1-2.19-5.731,6.983,6.983,0,0,1,1.3-5.287,4.371,4.371,0,0,1,3.616-1.8c.6.006.712-.236.8-.74.43-2.477,1.519-4.5,4.124-5.222,3.483-.968,6.533,1.07,7.229,4.8.15.807.357,1.14,1.3,1.193,2.457.136,4.374,2.532,4.518,5.3a11.649,11.649,0,0,1-1.875,6.878c-.346.558-.215.727.315.99a30.116,30.116,0,0,1,9.475,7.627,1.34,1.34,0,0,1,.048,2.019,1.326,1.326,0,0,1-2.055-.27,27.455,27.455,0,0,0-8.879-7.114,18.692,18.692,0,0,0-17.464.239.9.9,0,0,0-.575,1.149,22.473,22.473,0,0,1-15.3,25.485c-.806.242-1.1.585-1.031,1.37.039.463.007.932.007,1.515,1.694-.824,3.327-1.618,4.96-2.415,2.012-.98,4.01-1.989,6.036-2.938a7.684,7.684,0,0,1,11,5.38,7.545,7.545,0,0,1-3.207,7.858c-2.442,1.582-4.974,3.025-7.466,4.53-.171.1-.336.215-.667.428,1.45.253,2.738.481,4.026.7q5.421.935,10.841,1.866a7.445,7.445,0,0,0,5.473-1.269q8.024-5.214,16.055-10.418c1.361-.878,2.639-1.942,4.326-2.179.522-.074.323-.484.337-.755a30.791,30.791,0,0,0-1.836-11.749,37.54,37.54,0,0,0-3.468-7.308,1.321,1.321,0,0,1,.021-1.622,1.286,1.286,0,0,1,1.326-.475,1.4,1.4,0,0,1,.979.793c3.8,6.363,6,13.16,5.631,20.657-.018.376.066.526.46.672a6.874,6.874,0,0,1,2,12.1q-11.167,9.023-22.392,17.971a10.871,10.871,0,0,1-8.731,2.087c-4.155-.584-8.329-1.03-12.494-1.542q-6.117-.75-12.234-1.51c-1.331-.164-2.666-.3-4-.466a1.594,1.594,0,0,0-.768.106c-1.254.457-2.5.931-3.758,1.39-.354.13-.57.224-.391.72a1.461,1.461,0,0,1-.8,1.893,27.667,27.667,0,0,1-10.089,3.684.929.929,0,0,0-.28.158S-305.1,103.946-307.228,96.758Z" transform="translate(307.411 -29.376)" fill="rgba(255,255,255,0)"/><path d="M-240.717,79.585c0-1.431-.019-2.862.012-4.292a.781.781,0,0,0-.549-.842c-.66-.3-1.3-.655-1.926-1.019a5.209,5.209,0,0,1-2.747-5.507,5.975,5.975,0,0,1,4.359-5.354c.679-.212.975-.451.86-1.159a4.033,4.033,0,0,1,0-.962,1.32,1.32,0,0,1,1.371-1.292,1.154,1.154,0,0,1,1.248,1.272c-.181,1.4.333,2.008,1.715,2.213A4.937,4.937,0,0,1-234.01,63.9a1.3,1.3,0,0,1,.277,1.921,1.275,1.275,0,0,1-1.86.2,7.132,7.132,0,0,0-1.932-.987c-.372-.122-.529-.021-.527.4.012,2.365.008,4.73,0,7.1a.491.491,0,0,0,.419.558c.363.094.708.258,1.062.389,2.756,1.017,4.554,2.9,4.721,5.892a7.369,7.369,0,0,1-3.822,7.07,5.517,5.517,0,0,1-1.859.723c-.455.084-.546.3-.527.708a13.372,13.372,0,0,1-.019,1.575,1.223,1.223,0,0,1-1.249,1.213,1.339,1.339,0,0,1-1.385-1.2c-.1-.678.319-1.577-.184-1.988-.469-.384-1.339-.251-2.016-.416a9.55,9.55,0,0,1-3.06-1.448,1.278,1.278,0,0,1-.482-1.819,1.322,1.322,0,0,1,1.9-.412,7.573,7.573,0,0,0,3.3,1.278c.426.029.552-.073.544-.508C-240.733,82.623-240.717,81.1-240.717,79.585Z" transform="translate(302.777 -31.647)" fill="url(#a)"/><path d="M-251,116.113c-2.191-.265-5.114-.616-8.036-.972q-5.38-.655-10.761-1.314c-3.587-.435-7.176-.85-10.759-1.308a3.877,3.877,0,0,0-2.047.183c-1.21.491-2.467.867-3.671,1.373-.588.248-.732.023-.891-.464-.849-2.593-1.723-5.178-2.584-7.768a1.3,1.3,0,0,0-1.433-1.017,1.292,1.292,0,0,0-1.2,1.1,1.9,1.9,0,0,0,.225,1.095q1.653,4.725,3.131,9.509c.184.6.161.885-.459,1.2a27.2,27.2,0,0,1-7.13,2.49c-.52.1-.707,0-.891-.462-1.984-4.962-3.832-9.973-5.455-15.065-.37-1.162-.673-2.348-1.1-3.489-.233-.624-.034-.85.493-1.125a27.3,27.3,0,0,1,7.215-2.518c.441-.091.622.048.77.442.442,1.168.909,2.326,1.383,3.481.378.919.994,1.244,1.757.96.8-.3,1.051-1,.708-1.944-.464-1.278-.464-1.278.828-1.642,1.82-.515,1.81-.545,1.941-2.438a5.792,5.792,0,0,1,3.49-5.056q5.361-2.629,10.727-5.244c2.924-1.429,5.835-2.88,8.772-4.282A5.022,5.022,0,0,1-258.7,85.3a5,5,0,0,1-2.485,5.416c-3.286,1.992-6.588,3.955-9.883,5.932-.274.164-.547.334-.817.506a1.243,1.243,0,0,0-.625,1.408,1.281,1.281,0,0,0,1.132,1.056c2.15.375,4.3.757,6.45,1.13q5.936,1.025,11.874,2.045a10.129,10.129,0,0,0,7.475-1.683q6.336-4.119,12.677-8.232c1.711-1.11,3.4-2.249,5.134-3.325a4.22,4.22,0,0,1,6.592,2.952,3.959,3.959,0,0,1-1.544,3.877q-11.352,9.142-22.741,18.236A7.646,7.646,0,0,1-251,116.113Z" transform="translate(307.163 -33.333)" fill="url(#a)"/><path d="M-303.7,57.039A19.833,19.833,0,0,1-283.585,37.2,19.858,19.858,0,0,1-264,57.218a19.874,19.874,0,0,1-19.894,19.725A19.875,19.875,0,0,1-303.7,57.039Z" transform="translate(307.128 -29.972)" fill="url(#a)"/><path d="M-239.8,41.961a10.57,10.57,0,0,1-1.926,5.347c-.225.34-.472.267-.746.184a20.589,20.589,0,0,0-12.3,0c-.285.087-.551.144-.759-.185-1.257-1.98-2.206-4.044-1.811-6.481.314-1.942,1.568-2.716,3.455-2.148,1.272.382,1.979-.126,2-1.442a8.606,8.606,0,0,1,.511-3,2.761,2.761,0,0,1,2.708-1.964,2.718,2.718,0,0,1,2.752,1.9,8.076,8.076,0,0,1,.527,3.165,1.334,1.334,0,0,0,1.782,1.416c2.506-.607,3.79.418,3.8,3.039Z" transform="translate(303.599 -29.596)" fill="url(#a)"/><path d="M-237.338,81.545c0-1.256.014-2.513-.007-3.768-.008-.485.076-.587.587-.412a3.936,3.936,0,0,1,2.965,3.861,5.013,5.013,0,0,1-3.027,4.528c-.524.181-.523-.067-.52-.442C-237.333,84.057-237.338,82.8-237.338,81.545Z" transform="translate(302.068 -33.029)" fill="url(#a)"/><path d="M-240.463,65.641v6.441a3.048,3.048,0,0,1-2.584-2.83A3.614,3.614,0,0,1-240.463,65.641Z" transform="translate(302.503 -32.141)" fill="url(#a)"/><path d="M-262.087,91.687a3.341,3.341,0,0,1-3-1.5,12.375,12.375,0,0,1-1.795-4.133,1.3,1.3,0,0,1,.9-1.641,1.249,1.249,0,0,1,1.631.9,14.2,14.2,0,0,0,1.3,3.125.876.876,0,0,0,1.375.369,11.736,11.736,0,0,1,1.468-.768,1.225,1.225,0,0,1,1.6.5,1.125,1.125,0,0,1-.146,1.589A6.524,6.524,0,0,1-262.087,91.687Z" transform="translate(304.323 -33.568)" fill="url(#a)"/><path d="M-293.648,119.567a1.389,1.389,0,0,1-1.38-1.289,1.434,1.434,0,0,1,1.322-1.365,1.4,1.4,0,0,1,1.363,1.315A1.323,1.323,0,0,1-293.648,119.567Z" transform="translate(306.467 -36.051)" fill="url(#a)"/><path d="M-281.235,66.926a6.8,6.8,0,0,1,1.806-4.827,5.156,5.156,0,0,1,8.2.726,6.608,6.608,0,0,1,.5,6.876,5.45,5.45,0,0,1-5.494,3.247,5.934,5.934,0,0,1-4.814-4.694A5.309,5.309,0,0,1-281.235,66.926Z" transform="translate(305.415 -31.742)" fill="url(#a)"/><path d="M-295.288,49.637a6.319,6.319,0,0,1,1.862-4.643,5.138,5.138,0,0,1,7.538.114,6.817,6.817,0,0,1,0,9.137,4.951,4.951,0,0,1-5,1.565,5.739,5.739,0,0,1-4.2-4.357A6.231,6.231,0,0,1-295.288,49.637Z" transform="translate(306.486 -30.446)" fill="url(#a)"/><path d="M-287.068,70.179a1.374,1.374,0,0,1-1.427-2.042c.757-1.853,1.542-3.695,2.316-5.541q3.551-8.467,7.1-16.934c.267-.637.632-1.108,1.406-1.08a1.283,1.283,0,0,1,1.226.942,1.7,1.7,0,0,1-.242,1.331q-4.258,10.158-8.519,20.313c-.3.722-.612,1.443-.916,2.165A1.28,1.28,0,0,1-287.068,70.179Z" transform="translate(305.98 -30.535)" fill="url(#a)"/><path d="M-275.379,63.321c1.675.012,3.055,1.8,2.9,3.79a5.137,5.137,0,0,1-.243,1.191,2.974,2.974,0,0,1-2.7,2.24,3.051,3.051,0,0,1-2.681-2.284,4.089,4.089,0,0,1,.579-3.811A2.5,2.5,0,0,1-275.379,63.321Z" transform="translate(305.194 -31.964)" fill="url(#a)"/><path d="M-286.6,49.877a3.757,3.757,0,0,1-.976,2.725,2.519,2.519,0,0,1-3.9-.033,4.2,4.2,0,0,1,.034-5.372,2.4,2.4,0,0,1,2.6-.806,3.266,3.266,0,0,1,2.2,2.79A5,5,0,0,1-286.6,49.877Z" transform="translate(306.268 -30.664)" fill="url(#a)"/></svg>