<svg xmlns="http://www.w3.org/2000/svg" xmlns:xlink="http://www.w3.org/1999/xlink" width="352.663" height="299.06" viewBox="0 0 352.663 299.06"><defs><linearGradient id="a" x1="0.879" y1="0.01" x2="0.455" y2="0.913" gradientUnits="objectBoundingBox"><stop offset="0.004" stop-color="#e38ddd"/><stop offset="1" stop-color="#9571f6"/></linearGradient><linearGradient id="b" x1="0.5" x2="0.5" y2="1" gradientUnits="objectBoundingBox"><stop offset="0" stop-color="#fff"/><stop offset="1" stop-color="#cfcfcf"/></linearGradient><linearGradient id="e" x1="0.5" x2="0.5" y2="1" gradientUnits="objectBoundingBox"><stop offset="0" stop-color="#ed263d"/><stop offset="1" stop-color="#77131f"/></linearGradient><clipPath id="f"><path d="M2383.685,1431.478c18.836.127,42.85-2.4,65.848-12.8,5.87-2.654,42.128-19.055,37.845-35.569-1.509-5.817-6.773-6.736-8.926-14.478-2.551-9.174,3.208-13.756,7.2-25.189,2.382-6.822,9.353-26.788-2.608-37.842-7.148-6.606-20.733-9.731-31.074-7.317-15.167,3.541-20.382,18.3-28.772,43.437-7.438,22.279-5.527,27.748-11.163,43.7C2407.853,1397.255,2399.976,1413.553,2383.685,1431.478Z" transform="translate(-2383.685 -1297.471)" fill="url(#a)"/></clipPath><clipPath id="h"><path d="M888.546,720.449c-14.456-8.919-34.237-24.158-46.808-48.838-16.487-32.368-6.087-52.537-19.479-110.293-8.468-36.518-14.745-61.919-36.046-71.852-16.693-7.784-40.614-5.138-52.842,7.715-10.167,10.688-13.441,29.683-12.976,42.672.379,10.586,3.262,17.742-1.542,24.337-4.91,6.74-12.057,4.945-16.866,10.175-9.753,10.608,2.453,36.685,4.425,40.9,21.943,46.882,74.143,70.889,97.039,81.086A313.6,313.6,0,0,0,888.546,720.449Z" transform="translate(-698.252 -485.097)" fill="url(#b)"/></clipPath><clipPath id="n"><path d="M632.185,1685.982c-21.247,16.364-50.65,34.179-85.685,42.189-8.941,2.044-64.175,14.671-73.54-7.741-3.3-7.895,1.88-13.47-2.346-24.1-5.008-12.6-15.484-12.835-29.855-22.361-8.576-5.684-33.672-22.319-29.629-45.153,2.416-13.645,15.129-28.887,28.932-35.054,20.247-9.046,38.872,3.2,70.028,24.475,27.619,18.857,30.161,26.7,50.286,39.935C575.312,1667.989,598.277,1679.686,632.185,1685.982Z" transform="translate(-410.692 -1590.748)" fill="url(#b)"/></clipPath><clipPath id="s"><path d="M1496.744,2397.836c-1.615-2.2-11.332-14.989-26.709-15.522-12.874-.446-22.719,7.943-25,9.886-9.183,7.825-8.122,14.067-15.539,16.6-8.808,3.009-15.13-4.144-20.826-.015-3.929,2.849-5.08,9.269-3.487,13.746,2.8,7.858,14.713,11.6,23.75,9.723,12.451-2.588,12.732-14.456,26.869-18.269,8.215-2.215,10.608,1.121,19.347-1.019C1485.3,2410.48,1492.34,2403.465,1496.744,2397.836Z" transform="translate(-1404.49 -2382.297)" fill="url(#b)"/></clipPath><linearGradient id="x" x1="0.205" y1="0.495" x2="-0.207" y2="0.56" gradientUnits="objectBoundingBox"><stop offset="0" stop-color="#fff"/><stop offset="1" stop-color="#d2d2d2"/></linearGradient><linearGradient id="y" x1="0.41" y1="0.225" x2="0.753" y2="1.362" xlink:href="#x"/><linearGradient id="z" x1="0.489" y1="0.665" x2="0.524" y2="-1.287" xlink:href="#x"/><linearGradient id="aa" x1="0.41" y1="0.216" x2="0.753" y2="1.366" xlink:href="#x"/><linearGradient id="ab" x1="0.5" y1="0" x2="0.5" y2="1" xlink:href="#x"/><linearGradient id="ac" y1="0.5" x2="1" y2="0.5" gradientUnits="objectBoundingBox"><stop offset="0" stop-color="#aa80f9"/><stop offset="0.996" stop-color="#6165d7"/></linearGradient><linearGradient id="ad" x1="3.16" y1="0.477" x2="4.191" y2="0.477" xlink:href="#e"/><linearGradient id="af" x1="-3.957" y1="0.495" x2="-3.375" y2="2.345" gradientUnits="objectBoundingBox"><stop offset="0" stop-color="#ed263d"/><stop offset="1" stop-color="#030000"/></linearGradient></defs><g transform="translate(-359.075 -515.214)"><g transform="translate(605.579 616.711)"><g transform="translate(0 0)"><path d="M2383.685,1431.478c18.836.127,42.85-2.4,65.848-12.8,5.87-2.654,42.128-19.055,37.845-35.569-1.509-5.817-6.773-6.736-8.926-14.478-2.551-9.174,3.208-13.756,7.2-25.189,2.382-6.822,9.353-26.788-2.608-37.842-7.148-6.606-20.733-9.731-31.074-7.317-15.167,3.541-20.382,18.3-28.772,43.437-7.438,22.279-5.527,27.748-11.163,43.7C2407.853,1397.255,2399.976,1413.553,2383.685,1431.478Z" transform="translate(-2383.685 -1297.471)" fill="url(#e)"/><g clip-path="url(#f)"><g transform="translate(-80.717 -19.826)" opacity="0.5" style="mix-blend-mode:soft-light;isolation:isolate"><path d="M1771.037,1302.906a129.632,129.632,0,0,1-33.4-4.525l.229-.86c20.613,5.488,40.669,5.953,59.614,1.383,25.236-6.088,47.126-21.206,65.062-44.934,18.684-24.717,28.4-52.581,33.258-71.6,3.363-13.162,2.713-27.737-1.929-43.321l.852-.254c4.69,15.74,5.342,30.475,1.939,43.8-4.879,19.1-14.637,47.086-33.41,71.921-18.064,23.9-40.122,39.125-65.564,45.263A113.351,113.351,0,0,1,1771.037,1302.906Z" transform="translate(-1737.637 -1138.79)" fill="#fff"/><path d="M2793.937,1331.44l-.251-.311a77.48,77.48,0,0,1-9.618-16.722c-3.949-9.3-7.82-23.557-3.834-38.674l.86.227c-7.062,26.779,10.715,51.25,13.038,54.294,39.871-25.958,39.476-55.619,38.4-64.11-.029-.232-.044-.378-.044-.432l.446,0,.444,0c0,.049.017.156.038.319,1.1,8.646,1.513,38.9-39.141,65.191Z" transform="translate(-2648.505 -1249.854)" fill="#fff"/><path d="M2693.119,1456.813a105.239,105.239,0,0,1-15.312-1.166l-.235-.035-.1-.215c-.109-.23-10.877-23.353-8.515-54.789l2.381-31.682.887.067-2.381,31.682c-2.222,29.58,7.258,51.726,8.334,54.126,13.473,1.951,32.88,2.273,49.3-7.108,9.874-5.641,14.035-12.215,14.076-12.281l.756.469c-.17.275-4.291,6.8-14.339,12.556C2720.792,1452.549,2709.415,1456.813,2693.119,1456.813Z" transform="translate(-2552.301 -1340.175)" fill="#fff"/></g></g></g></g><g transform="translate(359.075 515.214)"><g transform="translate(35.928)"><path d="M888.546,720.449c-14.456-8.919-34.237-24.158-46.808-48.838-16.487-32.368-6.087-52.537-19.479-110.293-8.468-36.518-14.745-61.919-36.046-71.852-16.693-7.784-40.614-5.138-52.842,7.715-10.167,10.688-13.441,29.683-12.976,42.672.379,10.586,3.262,17.742-1.542,24.337-4.91,6.74-12.057,4.945-16.866,10.175-9.753,10.608,2.453,36.685,4.425,40.9,21.943,46.882,74.143,70.889,97.039,81.086A313.6,313.6,0,0,0,888.546,720.449Z" transform="translate(-698.252 -485.097)" fill="url(#e)"/><g clip-path="url(#h)"><g transform="translate(-48.556 -11.35)" opacity="0.5" style="mix-blend-mode:soft-light;isolation:isolate"><path d="M1249.156,647.171c-22.794-3.733-42.956-9.617-59.926-17.488-25.115-11.649-42.481-27.369-51.614-46.723-7.143-15.137-9.211-32.7-11.829-54.936a313.761,313.761,0,0,1-1.936-43.371c.142-15.154.254-27.124-4.821-43.368-5.157-16.5-14.128-32.13-26.664-46.448l.669-.586c12.618,14.412,21.65,30.147,26.844,46.769,5.117,16.377,5,28.409,4.861,43.641a313.043,313.043,0,0,0,1.93,43.258c2.711,23.021,4.669,39.655,11.75,54.661,9.042,19.16,26.263,34.736,51.184,46.3,16.9,7.837,36.981,13.7,59.7,17.417Z" transform="translate(-994.57 -394.251)" fill="url(#b)"/><path d="M768.322,733.909l-.236-.443c-16.45-30.814-38.176-47.766-53.5-56.561-16.6-9.521-29.447-11.789-29.574-11.81l.149-.877c.129.022,13.136,2.316,29.868,11.916,15.355,8.81,37.085,25.747,53.6,56.461a88.725,88.725,0,0,0,19.9-22.126c8.662-13.519,17.864-35.913,12.51-65.82l.876-.157c5.408,30.208-3.9,52.83-12.657,66.489a87.835,87.835,0,0,1-20.528,22.641Z" transform="translate(-638.106 -613.225)" fill="url(#b)"/><path d="M712.319,1160.47l-.322-.027c-21.041-1.786-46.9-24.7-64.891-43.6a447.357,447.357,0,0,1-34.3-40.936l.721-.521a446.5,446.5,0,0,0,34.227,40.85c17.79,18.694,43.291,41.327,64,43.293a255.681,255.681,0,0,1,20.66-37.937c12.366-18.306,47.275-30.866,47.626-30.99l.3.839c-.348.124-34.985,12.587-47.186,30.65a254.338,254.338,0,0,0-20.705,38.084Z" transform="translate(-574.928 -990.284)" fill="url(#b)"/><path d="M485.673,1689.972a247.687,247.687,0,0,1-32.853-2.252c-23.156-3.138-56.937-11.17-86.369-31.619l-56.835-39.487.507-.731,56.835,39.487c29.279,20.342,62.905,28.338,85.958,31.464a230.642,230.642,0,0,0,42.59,1.989,44.694,44.694,0,0,1-11.175-27.144c-.427-8.165,1.319-16.887,5.188-25.924a99.55,99.55,0,0,1,17.272-26.574l.641.617a98.576,98.576,0,0,0-17.1,26.329c-3.811,8.908-5.529,17.494-5.108,25.518.527,10.012,4.41,19.186,11.542,27.267l.586.665-.884.073C496.381,1689.657,492.4,1689.972,485.673,1689.972Z" transform="translate(-309.616 -1457.388)" fill="url(#b)"/></g></g></g><g transform="translate(0 138.139)"><path d="M632.185,1685.982c-21.247,16.364-50.65,34.179-85.685,42.189-8.941,2.044-64.175,14.671-73.54-7.741-3.3-7.895,1.88-13.47-2.346-24.1-5.008-12.6-15.484-12.835-29.855-22.361-8.576-5.684-33.672-22.319-29.629-45.153,2.416-13.645,15.129-28.887,28.932-35.054,20.247-9.046,38.872,3.2,70.028,24.475,27.619,18.857,30.161,26.7,50.286,39.935C575.312,1667.989,598.277,1679.686,632.185,1685.982Z" transform="translate(-410.692 -1590.748)" fill="url(#e)"/><g clip-path="url(#n)"><g transform="translate(-15.26 -13.807)" opacity="0.5" style="mix-blend-mode:soft-light;isolation:isolate"><path d="M618.59,1592.063a191.3,191.3,0,0,1-51.8-7.524c-42.641-11.984-77.779-35.3-99.748-52.744-15.3-12.152-27.231-29.394-35.454-51.246l.832-.313c8.166,21.7,20,38.812,35.175,50.863,21.9,17.4,56.937,40.64,99.435,52.584,40.812,11.47,78.694,9.759,112.592-5.086,25.445-11.144,47.811-28.961,66.476-52.958l.7.546c-18.757,24.115-41.239,42.024-66.821,53.227A151.576,151.576,0,0,1,618.59,1592.063Z" transform="translate(-413.715 -1480.236)" fill="url(#b)"/><path d="M375.533,1619.734c-58.463,0-80.976-30.662-86.738-40.645-.124-.215-.2-.355-.242-.409l.705-.543a5.431,5.431,0,0,1,.308.507c6.11,10.588,31.3,44.687,99.1,39.706a111.2,111.2,0,0,0-3.474-26.57c-3.49-13.773-11.279-33.028-28.568-46.542l.548-.7c17.5,13.675,25.366,33.134,28.889,47.051a110.134,110.134,0,0,1,3.488,27.19l-.013.4-.4.03Q382.034,1619.744,375.533,1619.734Z" transform="translate(-288.553 -1536.503)" fill="url(#b)"/><path d="M809.03,1622.194c-10.786,0-17.383-2.47-17.466-2.5l.319-.831c.1.04,10.51,3.925,26.6,1.819,14.826-1.941,37.641-9.508,62.229-34.526-.711-3.107-8.927-36.76-37.224-68.731l-29.981-33.873.666-.59,29.981,33.872c29.715,33.572,37.406,69.015,37.48,69.369l.049.233-.167.17c-24.853,25.36-47.964,33.012-62.977,34.965A73.714,73.714,0,0,1,809.03,1622.194Z" transform="translate(-728.718 -1482.62)" fill="url(#b)"/></g></g></g><g transform="translate(124.164 237.034)"><path d="M1496.744,2397.836c-1.615-2.2-11.332-14.989-26.709-15.522-12.874-.446-22.719,7.943-25,9.886-9.183,7.825-8.122,14.067-15.539,16.6-8.808,3.009-15.13-4.144-20.826-.015-3.929,2.849-5.08,9.269-3.487,13.746,2.8,7.858,14.713,11.6,23.75,9.723,12.451-2.588,12.732-14.456,26.869-18.269,8.215-2.215,10.608,1.121,19.347-1.019C1485.3,2410.48,1492.34,2403.465,1496.744,2397.836Z" transform="translate(-1404.49 -2382.297)" fill="url(#b)"/><g clip-path="url(#s)"><g transform="translate(-6.242 -2.145)" opacity="0.5" style="mix-blend-mode:soft-light;isolation:isolate"><path d="M1382.3,2502.535c-7.638,0-16.939-3.811-27.772-11.395l.255-.364c14.51,10.16,26.214,13.5,34.783,9.931,5.4-2.25,8.077-6.49,10.909-10.98,3.188-5.052,6.484-10.277,13.963-12.771,5.752-1.918,12.414-1,25.686.829a166.809,166.809,0,0,1,19.7,3.937l-.114.43a166.274,166.274,0,0,0-19.645-3.927c-13.2-1.82-19.832-2.733-25.485-.848-7.329,2.444-10.582,7.6-13.728,12.586-2.872,4.551-5.584,8.85-11.114,11.153A19.17,19.17,0,0,1,1382.3,2502.535Z" transform="translate(-1354.526 -2462.054)" fill="url(#b)"/><path d="M1454.452,2579.534l-.1-.434c15.764-3.658,20.042-12.526,20.423-13.387-1.415-4.87-5.544-8.988-8.768-11.59a46.312,46.312,0,0,0-6.792-4.56l.206-.395c.13.068,13.078,6.911,15.8,16.5l.021.072-.027.07C1475.178,2565.907,1471.171,2575.654,1454.452,2579.534Z" transform="translate(-1441.879 -2526.176)" fill="url(#b)"/><path d="M1646.012,2506.289c-1.585-4.764-.153-11.817,4.256-20.961a102.691,102.691,0,0,1,6.981-12.143c-7.12-5.8-24.53,7.974-24.706,8.115l-.278-.347a68.615,68.615,0,0,1,9.891-6.385c7.229-3.743,12.456-4.278,15.536-1.591l.15.131-.114.164c-.15.216-14.992,21.76-11.294,32.877Z" transform="translate(-1597.564 -2458.031)" fill="url(#b)"/><path d="M1822.945,2406.738c-4.194-16.093,17.38-24.972,19.955-25.968-7.4-12.762-25.882-15.177-26.069-15.2l.055-.442c.19.024,19.11,2.5,26.531,15.648l.13.23-.248.089c-.243.087-24.256,8.9-19.923,25.531Z" transform="translate(-1759.071 -2365.128)" fill="url(#b)"/></g></g></g></g><g transform="translate(416.759 615.851)"><path d="M1065.662,1787.824l-252.426-8.708a9.427,9.427,0,0,0-9.752,9.421v162.689a9.426,9.426,0,0,0,10.132,9.4l252.426-18.938a9.426,9.426,0,0,0,8.721-9.4V1797.245A9.426,9.426,0,0,0,1065.662,1787.824Z" transform="translate(-803.484 -1779.11)" fill="url(#x)"/><g transform="translate(4.339)"><path d="M1100.391,1787.824l-252.426-8.708a9.426,9.426,0,0,0-9.751,9.421v162.689a9.426,9.426,0,0,0,10.132,9.4l252.427-18.938a9.426,9.426,0,0,0,8.721-9.4V1797.245A9.426,9.426,0,0,0,1100.391,1787.824Z" transform="translate(-838.213 -1779.11)" fill="url(#y)"/></g><g transform="translate(4.339 2.163)"><path d="M1025.261,1878.294l105.771-87.356a9.392,9.392,0,0,0-6.667-3.113l-252.426-8.708a9.383,9.383,0,0,0-6.328,2.157l141.4,97.8A15.138,15.138,0,0,0,1025.261,1878.294Z" transform="translate(-862.187 -1779.111)" fill="url(#z)"/><path d="M1001.287,1893.439a15.137,15.137,0,0,1-18.25.778l-141.4-97.8a9.4,9.4,0,0,0-3.423,7.264v162.689a9.426,9.426,0,0,0,10.132,9.4l252.427-18.938a9.427,9.427,0,0,0,8.721-9.4V1812.391a9.386,9.386,0,0,0-2.434-6.307Z" transform="translate(-838.213 -1794.256)" fill="url(#aa)"/></g><path d="M1107.058,1806.083l-105.771,87.356a15.137,15.137,0,0,1-18.25.778l-141.4-97.8a9.4,9.4,0,0,0-3.423,7.264v23.993a27.1,27.1,0,0,1,12.946-2.265c9.715.812,12.034,6.876,30.635,15.631,17.392,8.185,19.217,4.7,26.884,10.628,14.771,11.428,8.311,24.618,21.257,36.887,13.481,12.776,25.112,2.859,44.39,15.005,20.37,12.835,13.849,27.984,30.635,36.887,23.517,12.475,47.532-11.311,67.523,1.25,6.044,3.8,9.909,9.784,12.4,16.326l15.889-1.192a9.427,9.427,0,0,0,8.721-9.4V1812.391A9.386,9.386,0,0,0,1107.058,1806.083Z" transform="translate(-833.874 -1794.256)" fill="url(#ab)" style="mix-blend-mode:multiply;isolation:isolate"/></g><path d="M1044.662,2045.858v147.013l17.445,15.872,32.721-26.2Z" transform="translate(-597.77 -1396.68)" opacity="0.3" fill="url(#ac)" style="mix-blend-mode:multiply;isolation:isolate"/><g transform="translate(446.873 644.722)"><g transform="translate(0 0)"><path d="M1129.8,2017.644l15.067,151.535a3.89,3.89,0,0,1-3.458,4.385l-73.412,6.149c-4.475.157-6.89-2.254-7.133-4.642l-16.325-160.4c-.245-2.41,1.991-4.542,6.511-4.45l74.412,3.137A4.79,4.79,0,0,1,1129.8,2017.644Z" transform="translate(-1044.516 -2010.215)" fill="url(#ad)"/><path d="M1153.973,2017.429l15.13,152.316a3.91,3.91,0,0,1-3.472,4.408l-76.11,5.579a4.529,4.529,0,0,1-4.77-4.047l-16.4-161.251a3.741,3.741,0,0,1,3.948-4.238l77.316,2.924A4.812,4.812,0,0,1,1153.973,2017.429Z" transform="translate(-1065.355 -2010.193)" fill="url(#e)"/><path d="M1177.9,2091.148l14.033,141.174a3.646,3.646,0,0,1-3.25,4.112l-71.587,5.088a4.224,4.224,0,0,1-4.435-3.778l-15.135-148.94a3.5,3.5,0,0,1,3.666-3.969l72.636,2.312A4.463,4.463,0,0,1,1177.9,2091.148Z" transform="translate(-1090.885 -2075.507)" fill="url(#af)"/><path d="M1412.646,2049.948a1.241,1.241,0,0,1-1.286,1.427,1.719,1.719,0,0,1-1.585-1.526,1.241,1.241,0,0,1,1.288-1.427A1.72,1.72,0,0,1,1412.646,2049.948Z" transform="translate(-1364.134 -2043.645)" fill="url(#e)"/></g><g transform="translate(31.911 46.392)" opacity="0.69"><path d="M1309.752,2388.872c-8.557,4.452-12.22,14.353-8.182,22.112s14.248,10.44,22.8,5.988Z" transform="translate(-1299.927 -2387.952)" fill="#fff"/><path d="M1393.184,2410.529h0l-14.622-28.1h0a8.133,8.133,0,0,1,10.968,3.46l7.114,13.671A8.133,8.133,0,0,1,1393.184,2410.529Z" transform="translate(-1368.738 -2381.509)" fill="#fff"/><path d="M1475.775,2715.121c-8.557,4.453-12.22,14.353-8.182,22.112s14.248,10.44,22.8,5.988Z" transform="translate(-1445.208 -2673.439)" fill="#fff"/><path d="M1559.208,2736.778h0l-14.622-28.1h0a8.132,8.132,0,0,1,10.968,3.46l7.114,13.671A8.133,8.133,0,0,1,1559.208,2736.778Z" transform="translate(-1514.019 -2666.997)" fill="#fff"/><path d="M1338.738,2561.011l-8.9,4.631q-17.059-16.609-23.054-44.3l8.9-4.631Z" transform="translate(-1305.928 -2499.815)" fill="#fff"/></g><g transform="translate(2.975 0)" opacity="0.3" style="mix-blend-mode:soft-light;isolation:isolate"><path d="M1106.821,2090.846c-7.564-22.35,5.6-33.609-1.854-54.31-4.057-11.263-12.177-19.654-21.11-25.9l-11.555-.437a3.742,3.742,0,0,0-3.948,4.238l16.4,161.251a4.529,4.529,0,0,0,4.77,4.047l65.71-4.817c-.206-16.837-4.484-28.82-9.241-37.338C1132.917,2114.171,1114.653,2113.99,1106.821,2090.846Z" transform="translate(-1068.33 -2010.193)" fill="#f4f7fa"/></g></g></g></svg>